<svg width="16" height="16" viewBox="0 0 16 16" fill="none" xmlns="http://www.w3.org/2000/svg">
<path d="M8 0C3.58 0 0 3.58 0 8C0 11.54 2.29 14.53 5.47 15.59C5.87 15.66 6.02 15.42 6.02 15.21C6.02 15.02 6.01 14.39 6.01 13.72C4 14.09 3.48 13.23 3.32 12.78C3.23 12.55 2.84 11.84 2.5 11.65C2.22 11.5 1.82 11.13 2.49 11.12C3.12 11.11 3.57 11.7 3.77 11.94C4.55 13.15 5.77 12.73 6.14 12.53C6.3 11.76 6.58 11.24 6.89 10.96C5.01 10.66 3.04 9.76 3.04 6.95C3.04 6.15 3.31 5.48 3.78 4.96C3.7 4.75 3.42 4.01 3.86 3.01C3.86 3.01 4.44 2.8 6.02 3.73C6.66 3.55 7.34 3.46 8.02 3.46C8.7 3.46 9.38 3.55 10.02 3.73C11.6 2.8 12.18 3.01 12.18 3.01C12.62 4.01 12.34 4.75 12.26 4.96C12.73 5.48 13 6.15 13 6.95C13 9.77 11.01 10.66 9.13 10.96C9.5 11.29 9.84 11.86 9.84 12.73C9.84 13.87 9.83 14.75 9.83 15.21C9.83 15.42 9.98 15.67 10.39 15.59C13.71 14.53 16 11.53 16 8C16 3.58 12.42 0 8 0Z" fill="white"/>
</svg>